<?xml version="1.0" encoding="utf-8"?>
<!-- Generator: Adobe Illustrator 24.3.0, SVG Export Plug-In . SVG Version: 6.00 Build 0)  -->
<svg version="1.1" id="Camada_1" xmlns="http://www.w3.org/2000/svg" xmlns:xlink="http://www.w3.org/1999/xlink" x="0px" y="0px"
	 viewBox="0 0 449.63 443.69" style="enable-background:new 0 0 449.63 443.69;" xml:space="preserve">
<style type="text/css">
	.st0{display:none;fill:url(#SVGID_1_);}
	.st1{display:none;fill:#FFFFFF;}
	.st2{font-family:'Mango-Regular';}
	.st3{font-size:98.188px;}
	.st4{fill:#FFFFFF;}
</style>
<linearGradient id="SVGID_1_" gradientUnits="userSpaceOnUse" x1="0" y1="420.9449" x2="595.2756" y2="420.9449">
	<stop  offset="0" style="stop-color:#D50E38"/>
	<stop  offset="0.9978" style="stop-color:#F1865B"/>
</linearGradient>
<rect class="st0" width="595.28" height="841.89"/>
<text transform="matrix(1 0 0 1 216.867 422.3272)" class="st1 st2 st3">ran</text>
<text transform="matrix(1 0 0 1 256.312 480.9816)" class="st1 st2 st3">gu!</text>
<path class="st1" d="M248.93,417.52c0.43,0.34,0.74,0.6,1.06,0.86c5.66,4.59,5.01,11.45,2.29,15.18c-1.71,2.35-4.16,3.56-6.91,4.11
	c-5.04,1-10.04,0.7-14.93-0.89c-0.53-0.17-0.84-0.06-1.13,0.35c-0.82,1.11-0.48,2.54,0.79,3.06c0.54,0.23,1.15,0.35,1.74,0.4
	c3.72,0.32,7.45,0.6,11.18,0.9c2.47,0.19,4.79,0.85,6.78,2.38c3.44,2.65,4.53,6.82,2.94,11.14c-1.53,4.17-4.75,6.44-8.8,7.69
	c-4.21,1.3-8.5,1.27-12.81,0.63c-3.75-0.56-7.35-1.61-10.61-3.6c-1.04-0.64-1.93-1.43-2.49-2.55c-1.36-2.74,0.44-5.52,3.49-5.46
	c1.2,0.03,2.17,0.52,3.04,1.27c0.91,0.79,1.75,1.66,2.7,2.39c3.02,2.33,6.49,3.04,10.2,2.59c0.83-0.1,1.73-0.53,2.38-1.06
	c1.5-1.24,1.04-3.24-0.83-3.73c-1.21-0.32-2.46-0.47-3.7-0.63c-3.06-0.39-6.13-0.68-9.17-1.15c-1.71-0.26-3.3-0.98-4.68-2.08
	c-1.3-1.03-2.11-2.36-2.41-4c-0.82-4.55,1.26-8.3,5.7-10.28c0.33-0.15,0.67-0.29,1.13-0.49c-0.29-0.23-0.5-0.4-0.72-0.56
	c-3.11-2.42-4.87-5.48-4.53-9.54c0.33-3.98,2.57-6.64,6.01-8.38c3.36-1.7,6.99-2.05,10.69-1.87c2.38,0.12,4.74,0.44,7,1.24
	c0.7,0.25,1.1-0.16,1.3-0.67c0.32-0.85,0.53-1.74,0.76-2.63c0.32-1.21,0.55-2.45,0.96-3.63c1.04-2.97,2.78-3.96,5.91-3.91
	c4.79,0.08,7.14,5.53,4.8,9.41c-0.88,1.47-2.33,2.16-3.9,2.54c-1.34,0.33-2.72,0.5-4.08,0.75
	C249.72,417.37,249.4,417.43,248.93,417.52z M241.05,428.42c-0.05-1.04-0.04-1.94-0.15-2.81c-0.2-1.65-0.61-3.24-1.63-4.6
	c-0.71-0.94-1.64-1.36-2.8-1.19c-1.13,0.16-1.78,0.91-2.14,1.94c-0.59,1.7-0.61,3.44-0.34,5.19c0.27,1.72,0.71,3.39,1.94,4.71
	c1.44,1.53,3.8,1.09,4.52-0.87C240.75,429.98,240.88,429.12,241.05,428.42z"/>
<path class="st1" d="M285.02,365.85c0.16-0.14,0.34-0.26,0.47-0.43c3.38-4.25,7.82-5.31,12.86-4.07c5.11,1.26,7.81,4.81,8.05,10.41
	c0.08,1.89-0.05,3.82-0.27,5.7c-0.44,3.84-0.97,7.68-1.53,11.51c-0.21,1.41,0.02,2.63,0.9,3.76c0.64,0.82,1.06,1.73,0.89,2.83
	c-0.19,1.21-0.86,1.96-2.09,2.09c-0.77,0.08-1.57,0.09-2.34-0.01c-3.79-0.48-7.57-0.99-11.35-1.51c-0.59-0.08-1.18-0.23-1.76-0.4
	c-2.1-0.65-2.71-2.68-1.32-4.39c0.37-0.46,0.85-0.85,1.31-1.23c0.8-0.67,1.24-1.52,1.37-2.55c0.45-3.45,0.95-6.89,1.36-10.34
	c0.14-1.18,0.16-2.4,0.04-3.59c-0.15-1.56-1.07-2.45-2.45-2.66c-1.34-0.2-2.44,0.36-3.01,1.84c-0.49,1.28-0.82,2.64-1.02,4
	c-0.65,4.48-1.19,8.97-1.79,13.45c-0.07,0.54-0.18,1.09-0.33,1.61c-0.56,1.87-1.63,2.81-3.56,2.61c-3.76-0.38-7.53-0.86-11.25-1.53
	c-2.32-0.42-2.9-2.84-1.29-4.6c0.07-0.08,0.14-0.17,0.22-0.22c1.79-1.13,2.29-2.87,2.51-4.87c0.48-4.39,1.12-8.76,1.71-13.14
	c0.27-1.98-0.21-3.68-1.73-5.03c-0.21-0.19-0.41-0.41-0.59-0.63c-1.02-1.27-0.83-2.79,0.63-3.49c1.35-0.65,2.81-1.15,4.27-1.47
	c2.61-0.58,5.27-0.75,7.95-0.51c0.36,0.03,0.73,0.08,1.08,0.16c1.6,0.38,2.3,1.27,2.22,2.92c-0.05,0.94-0.2,1.87-0.31,2.8
	c-0.03,0.28-0.07,0.55-0.11,0.83C284.86,365.75,284.94,365.8,285.02,365.85z"/>
<path class="st1" d="M288.59,447.3c-0.13,0.16-0.29,0.32-0.4,0.49c-2.69,4.5-6.8,6.22-11.83,5.74c-5.59-0.52-8.73-3.62-9.77-9.45
	c-0.32-1.79-0.42-3.64-0.45-5.46c-0.07-3.95-0.06-7.9,0-11.85c0.02-1.46-0.45-2.53-1.7-3.28c-0.64-0.38-1.17-0.88-1.31-1.68
	c-0.2-1.23,0.28-2.1,1.66-2.56c1.71-0.57,3.44-1.13,5.2-1.45c2.25-0.41,4.55-0.74,6.83-0.79c2.48-0.05,3.52,1.12,3.71,3.61
	c0.05,0.7,0.05,1.41,0.05,2.12c0,4.6-0.03,9.21,0.02,13.81c0.01,1.3,0.13,2.62,0.44,3.88c0.44,1.81,1.88,2.62,3.55,2.23
	c0.93-0.22,1.57-0.82,1.81-1.68c0.32-1.12,0.61-2.29,0.64-3.44c0.08-3.76,0.04-7.53,0.04-11.3c0-1.02-0.4-1.82-1.23-2.41
	c-0.13-0.09-0.25-0.19-0.38-0.27c-0.93-0.58-1.56-1.33-1.41-2.5c0.16-1.17,1.07-1.58,2.03-1.95c3.32-1.27,6.77-1.97,10.32-2.11
	c0.7-0.03,1.42-0.01,2.11,0.08c1.41,0.18,2.4,0.96,2.69,2.37c0.22,1.06,0.31,2.17,0.32,3.26c0.03,5.88,0.01,11.77,0.02,17.65
	c0,0.73,0.06,1.46,0.15,2.19c0.15,1.19,0.69,2.18,1.64,2.93c0.18,0.15,0.36,0.3,0.55,0.45c2.26,1.81,2.16,3.4-0.37,4.84
	c-2.67,1.52-5.62,2.24-8.63,2.68c-1.08,0.16-2.19,0.22-3.28,0.2c-1.59-0.04-2.42-0.78-2.62-2.35c-0.13-0.98-0.1-1.98-0.13-2.97
	c-0.01-0.3,0-0.61,0-0.91C288.76,447.37,288.68,447.34,288.59,447.3z"/>
<path class="st1" d="M244.99,385.38c-0.27,0.32-0.44,0.47-0.54,0.64c-1.84,3.32-4.77,5.04-8.42,5.61c-2.45,0.38-4.91,0.46-7.28-0.45
	c-6.48-2.49-8.05-10.78-2.94-15.47c1.92-1.76,4.24-2.85,6.58-3.9c2-0.9,4.04-1.72,5.99-2.73c1.07-0.55,2.07-1.33,2.96-2.15
	c1.19-1.09,1.6-2.53,1.43-4.14c-0.22-2.14-2.22-3.18-4.09-2.12c-0.93,0.53-1.46,1.38-1.86,2.35c-0.51,1.23-0.95,2.51-1.64,3.63
	c-1.67,2.71-5.11,3.6-7.99,2.21c-2.55-1.23-3.63-4.34-2.42-7.03c1.09-2.42,3.13-3.79,5.46-4.79c2.28-0.98,4.7-1.43,7.16-1.61
	c3.19-0.25,6.38-0.18,9.5,0.66c5.5,1.48,8.74,5.18,9.96,10.6c0.57,2.53,0.78,5.16,0.93,7.76c0.15,2.74,0.06,5.49,0.03,8.24
	c-0.02,1.46,0.43,2.62,1.63,3.54c1.37,1.05,1.32,2.92-0.04,4.08c-1.12,0.95-2.48,1.32-3.9,1.49c-2.34,0.29-4.65,0.27-6.84-0.75
	c-2.16-1-3.49-2.61-3.55-5.1C245.1,385.85,245.07,385.75,244.99,385.38z M243.67,373.41c-0.09-0.05-0.17-0.11-0.26-0.16
	c-1.24,0.58-2.54,1.08-3.71,1.78c-0.86,0.51-1.66,1.2-2.31,1.96c-1.09,1.29-1.18,2.81-0.52,4.35c0.51,1.19,1.51,1.79,2.8,1.74
	c1.82-0.07,3.35-1.27,3.64-3.3C243.61,377.69,243.57,375.54,243.67,373.41z"/>
<path class="st1" d="M202.1,367.4c0.06-0.28,0.14-0.56,0.16-0.84c0.25-2.53,1.16-4.76,3.04-6.53c4.03-3.8,9.47-2.62,11.47,2.52
	c0.37,0.94,0.61,1.96,0.73,2.96c0.36,3.09-1.15,5.51-4.1,6.51c-1.12,0.38-2.34,0.5-3.51,0.71c-0.62,0.11-1.25,0.13-1.86,0.26
	c-1.56,0.32-2.09,1.17-1.75,2.74c0.08,0.36,0.19,0.71,0.3,1.06c0.95,3.07,1.93,6.14,2.83,9.23c0.36,1.21,1.03,2.06,2.11,2.69
	c0.6,0.35,1.21,0.77,1.64,1.3c1.17,1.44,0.83,3.07-0.78,3.95c-0.68,0.37-1.42,0.67-2.17,0.9c-3.44,1.09-6.89,2.15-10.34,3.2
	c-0.65,0.2-1.32,0.34-1.99,0.44c-2.22,0.32-3.68-1.38-3.05-3.55c0.16-0.55,0.42-1.07,0.66-1.59c0.39-0.84,0.5-1.7,0.22-2.59
	c-1.49-4.8-2.97-9.59-4.47-14.38c-0.57-1.81-1.7-3.09-3.56-3.66c-0.35-0.11-0.69-0.26-1.01-0.44c-1.3-0.71-1.65-2.01-0.85-3.25
	c0.98-1.53,2.36-2.68,3.88-3.6c1.98-1.2,4.06-2.24,6.13-3.31c0.48-0.25,1.03-0.38,1.57-0.47c1.56-0.26,2.51,0.28,3.08,1.76
	c0.4,1.05,0.71,2.13,1.06,3.2c0.09,0.26,0.19,0.52,0.28,0.78C201.92,367.4,202.01,367.4,202.1,367.4z"/>
<path class="st1" d="M317.84,407.09c1.11,0.15,2.59,0.2,3.98,0.56c2,0.53,3.32,1.95,3.39,4.03c0.1,2.63,0.05,5.28-0.24,7.89
	c-0.69,6.2-1.57,12.38-2.37,18.57c-0.03,0.23-0.07,0.47-0.11,0.7c-0.39,1.97-1.83,2.85-3.77,2.32c-0.94-0.26-1.41-0.97-1.67-1.82
	c-0.67-2.25-1.31-4.51-1.94-6.78c-1.17-4.2-2.37-8.39-3.48-12.61c-0.51-1.94-0.91-3.92-1.25-5.9c-0.53-3.07,1-5.36,4.12-6.25
	C315.46,407.53,316.47,407.38,317.84,407.09z"/>
<g>
	<path class="st4" d="M404.26,394.97l1.42-5.68c0.56-2.24-1.13-4.41-3.44-4.41H146.76c-2.31,0-4,2.17-3.44,4.41l1.42,5.68
		c0.39,1.58,1.81,2.69,3.44,2.69h252.64C402.45,397.65,403.87,396.54,404.26,394.97z"/>
	<path class="st4" d="M287.26,245.07c0.36-7.34-5.49-13.41-12.75-13.41c-3.91,0-7.41,1.76-9.75,4.53c-2.89,3.41-0.36,8.59,4.11,8.38
		c1.87-0.09,3.75-0.14,5.64-0.14C278.81,244.42,283.05,244.67,287.26,245.07z"/>
	<path class="st4" d="M79.23,67.56c-0.17,1.73,123.85-10.66,155.31-8.31c9.37,0.7,16.39,2.22,20.35-3.99
		c6.27-9.85-8.29-17.99-31.83-11.05C178.62,57.31,80.03,59.3,79.23,67.56z"/>
	<path class="st4" d="M113.37,152.71c8.36,5.41,19.81,3.25,25.74-4.75c5.64-7.61,4.9-18.4-2.1-25.16l-9.03-9.03
		c-0.15-0.16-0.31-0.32-0.47-0.47c-7.61-7.35-19.73-7.14-27.08,0.47c-7.35,7.61-7.14,19.73,0.47,27.08l9.03,9.03
		C110.96,150.95,112.12,151.9,113.37,152.71z"/>
	<path class="st4" d="M154.38,362.67c-0.65,5,3.22,9.44,8.26,9.44h223.72c5.04,0,8.92-4.44,8.26-9.44
		c-7.83-59.78-58.86-105.38-120.11-105.48C213.24,257.29,162.21,302.89,154.38,362.67z M365.56,348.73c-0.05-0.15-0.1-0.3-0.15-0.45
		c-1.07-3.23,0.48-6.74,3.63-8.01l0,0c3.38-1.37,7.27,0.36,8.43,3.82c0.09,0.28,0.19,0.56,0.28,0.85c1.13,3.47-0.97,7.17-4.5,8.08
		l0,0C369.95,353.86,366.61,351.96,365.56,348.73z M249.02,279.79L249.02,279.79c-0.92-3.56,1.33-7.19,4.93-7.88
		c42.97-8.26,86.8,10.14,111.01,46.59c2.03,3.05,1.01,7.2-2.16,9.03l0,0c-2.93,1.69-6.64,0.78-8.52-2.04
		c-21.37-32.11-60-48.32-97.88-41.06C253.09,285.07,249.86,283.04,249.02,279.79z"/>
	<path class="st4" d="M255.97,72.04H70.72c-10.87,0-17.2,3.98-19.68,19.68c-2.48,15.7-7.01,265.25-1.68,284.01
		c5.33,18.76,24.12,20.81,39.8,20.81l34.68,0.9c4.23,0.11,7.4-3.84,6.37-7.94l-2.36-9.45c-0.3-1.18-0.25-2.43,0.15-3.61
		c0.92-2.7,3.68-4.33,6.53-4.33h0c3.46,0,6.33-2.63,6.67-6.07c5.91-59.03,55.65-107.57,108.02-119.15
		c9.39-2.08-2.88-15.24,14.3-23.54c8.55-4.13,4.6-139.17,4.6-139.17C268.12,77.48,262.68,72.04,255.97,72.04z M95.74,314.65
		L95.74,314.65c0-3.53,2.86-6.38,6.38-6.38h25.54c3.53,0,6.38,2.86,6.38,6.38l0,0c0,3.53-2.86,6.38-6.38,6.38h-25.54
		C98.59,321.04,95.74,318.18,95.74,314.65z M95.74,289.11L95.74,289.11c0-3.53,2.86-6.38,6.38-6.38h44.69
		c3.53,0,6.38,2.86,6.38,6.38v0c0,3.53-2.86,6.38-6.38,6.38h-44.69C98.59,295.5,95.74,292.64,95.74,289.11z M95.74,263.58
		L95.74,263.58c0-3.53,2.86-6.38,6.38-6.38h70.23c3.53,0,6.38,2.86,6.38,6.38l0,0c0,3.53-2.86,6.38-6.38,6.38h-70.23
		C98.59,269.96,95.74,267.1,95.74,263.58z M96.38,226.63l54.06-54.03c0.06-0.06,0.06-0.16,0-0.21l-9.3-9.3
		c-0.05-0.05-0.13-0.06-0.19-0.02c-12.65,8.27-29.37,6.56-40.07-4.13l-9.03-9.03c-11.95-12.37-11.95-31.98,0-44.35
		c12.25-12.68,32.46-13.03,45.14-0.78l9.03,9.03c10.7,10.7,12.41,27.43,4.13,40.07c-0.04,0.06-0.03,0.14,0.02,0.19l9.3,9.3
		c0.06,0.06,0.16,0.06,0.21,0l18.32-18.32c0.05-0.05,0.06-0.13,0.02-0.19c-8.29-12.64-6.57-29.37,4.13-40.07l13.54-13.55
		c2.49-2.49,6.54-2.49,9.03,0l0,0c2.49,2.49,2.49,6.53,0,9.03l-13.54,13.55c-5.63,5.68-7.13,14.26-3.78,21.5
		c0.04,0.1,0.18,0.12,0.25,0.05l26.09-26.09c2.49-2.49,6.53-2.49,9.03,0l0,0c2.49,2.49,2.49,6.53,0,9.03l-26.09,26.09
		c-0.08,0.08-0.05,0.21,0.05,0.25c7.25,3.36,15.85,1.86,21.53-3.78l13.55-13.54c2.49-2.49,6.53-2.49,9.03,0l0,0
		c2.49,2.49,2.49,6.54,0,9.03l-13.55,13.54c-10.7,10.7-27.43,12.41-40.07,4.13c-0.06-0.04-0.14-0.03-0.19,0.02l-18.32,18.32
		c-0.06,0.06-0.06,0.16,0,0.21l54.07,54.07c2.49,2.49,2.49,6.53,0,9.03h0c-2.49,2.49-6.53,2.49-9.03,0l-54.07-54.07
		c-0.06-0.06-0.16-0.06-0.21,0l-54.07,54.07c-2.49,2.49-6.53,2.49-9.03,0l0,0C93.89,233.16,93.89,229.12,96.38,226.63z M70.2,314.65
		L70.2,314.65c0-3.53,2.86-6.38,6.38-6.38h0c3.53,0,6.38,2.86,6.38,6.38l0,0c0,3.53-2.86,6.38-6.38,6.38h0
		C73.06,321.04,70.2,318.18,70.2,314.65z M70.2,289.11L70.2,289.11c0-3.53,2.86-6.38,6.38-6.38h0c3.53,0,6.38,2.86,6.38,6.38v0
		c0,3.53-2.86,6.38-6.38,6.38h0C73.06,295.5,70.2,292.64,70.2,289.11z M70.2,263.58L70.2,263.58c0-3.53,2.86-6.38,6.38-6.38h0
		c3.53,0,6.38,2.86,6.38,6.38l0,0c0,3.53-2.86,6.38-6.38,6.38h0C73.06,269.96,70.2,267.1,70.2,263.58z"/>
</g>
</svg>
